<svg id="Line" height="512" viewBox="0 0 64 64" width="512" xmlns="http://www.w3.org/2000/svg"><g fill="#6BB187"><path d="m5.34772 42.571a1.017 1.017 0 0 0 -.90345 1.1092 10.51978 10.51978 0 0 0 3.95773 6.79136c2.88427 2.22729 6.92944 2.99261 12.035 2.272 1.47473 1.72748 4.71851 3.27466 8.1518 4.52521-1.95453.53662-3.707.95734-4.91266 1.21649a1.01767 1.01767 0 0 0 .2127 2.01263.99374.99374 0 0 0 .21467-.02282c.76184-.16364 4.12188-.9079 7.89453-2.06854 3.77392 1.1604 7.13647 1.905 7.89843 2.06854a.99468.99468 0 0 0 .21473.02282 1.01766 1.01766 0 0 0 .21264-2.01263c-1.46-.31354-3.15735-.73041-4.91906-1.21631 3.4306-1.25024 6.674-2.79748 8.15618-4.52643 5.10566.7226 9.1518-.04272 12.03711-2.271a10.5195 10.5195 0 0 0 3.95765-6.79132 1.01691 1.01691 0 0 0 -.90345-1.1092c-.79577-.086-1.568-.13214-2.3219-.15185a12.89 12.89 0 0 0 3.16968-12.559 1.01882 1.01882 0 0 0 -.54565-.58643 1.00788 1.00788 0 0 0 -.6911-.03015 21.72737 21.72737 0 0 0 -.1825-11.39368 1.01709 1.01709 0 0 0 -1.4809-.57446c-.54132.31293-1.04992.64221-1.53631.98041.1499-8.087-4.75537-11.45612-4.98462-11.60712a1.01692 1.01692 0 0 0 -1.462.37567 22.37405 22.37405 0 0 0 -1.5401 3.66755c-1.704-2.8642-4.89618-6.69922-9.9682-7.18293a1.01845 1.01845 0 0 0 -1.09033.79511 11.465 11.465 0 0 0 1.64594 8.2066c1.81332 2.7134 4.86142 4.51394 9.03732 5.37928a10.89318 10.89318 0 0 0 3.5636 5.61414 12.15345 12.15345 0 0 0 .062 10.78918c-3.17358 3.52167-2.47034 7.08612-1.20593 9.23688a11.02147 11.02147 0 0 0 -6.73407 7.2594 1.49032 1.49032 0 0 1 -.14112.31708l-.0169.02685c-1.14484 1.85193-5.71375 3.709-10.22132 5.1297-4.71593-1.50053-9.16186-3.38164-10.23406-5.1248l-.01684-.02686a1.48231 1.48231 0 0 1 -.14612-.32794 11.01613 11.01613 0 0 0 -6.73212-7.25348c1.2649-2.15118 1.96845-5.71655-1.2055-9.23755a12.15343 12.15343 0 0 0 .06195-10.78869 10.88487 10.88487 0 0 0 3.56335-5.614c4.17585-.86529 7.224-2.66583 9.0373-5.37921a11.46478 11.46478 0 0 0 1.64587-8.2066 1.01154 1.01154 0 0 0 -1.09027-.7951c-5.07208.48371-8.26428 4.31873-9.9682 7.18286a22.38427 22.38427 0 0 0 -1.5401-3.66748 1.017 1.017 0 0 0 -1.462-.37567c-.22931.151-5.13458 3.52008-4.98462 11.60724-.48663-.33838-.99518-.66766-1.53631-.98053a1.0171 1.0171 0 0 0 -1.4809.57446 21.72664 21.72664 0 0 0 -.18249 11.39368 1.00809 1.00809 0 0 0 -.69117.03015 1.01882 1.01882 0 0 0 -.54565.58643 12.88994 12.88994 0 0 0 3.17031 12.55978c-.75391.01966-1.52629.06555-2.32257.15108zm41.01104-26.833c-3.2359-.79786-5.58453-2.25141-6.98706-4.33545a9.37968 9.37968 0 0 1 -1.4729-5.71686c4.9859 1.05511 7.66162 6.19232 8.50794 8.13568a12.40861 12.40861 0 0 0 -.04798 1.91663zm8.21857 5.48822a16.15673 16.15673 0 0 1 1.87946-1.46405c.45062 2.1889 1.0224 6.75079-.82117 10.67749a22.07522 22.07522 0 0 0 -3.73779 2.36434 9.91234 9.91234 0 0 1 .53668-9.03638 11.62492 11.62492 0 0 1 2.14282-2.54142zm-6.04687-4.392a9.78542 9.78542 0 0 1 -.07849-3.05225c.00195-.012.003-.02386.004-.0368a16.03843 16.03843 0 0 1 1.39545-4.61963c1.3753 1.40558 3.75464 4.79089 3.06616 10.87591a14.03206 14.03206 0 0 0 -1.56537 1.75129 8.71588 8.71588 0 0 1 -2.82175-4.91857zm3.75 18.34729a18.03543 18.03543 0 0 1 4.59179-3.097c.322-.16.648-.316.975-.46612.37384 2.10846.49231 6.914-4.70313 10.93707a16.885 16.885 0 0 0 -1.99792.35394c-.82454-1.15995-2.40798-4.27311 1.13426-7.72794zm-1.25232 9.84449a14.73692 14.73692 0 0 1 2.62786-.486.89633.89633 0 0 0 .10138-.01489 22.15826 22.15826 0 0 1 3.55316-.02887 8.5487 8.5487 0 0 1 -2.95587 4.36419c-2.31476 1.78705-5.61548 2.442-9.8346 1.954a9.10235 9.10235 0 0 1 6.50807-5.78843zm-24.92688-39.34033a9.37689 9.37689 0 0 1 -1.473 5.71686c-1.40253 2.084-3.75129 3.53772-6.98713 4.33551a12.39892 12.39892 0 0 0 -.04748-1.91773c.8469-1.94431 3.52262-7.07971 8.50761-8.13464zm-6.62036 45.12878c-4.19721.485-7.494-.161-9.80774-1.93219a8.6054 8.6054 0 0 1 -2.97773-4.387 22.04746 22.04746 0 0 1 3.54426.02985.94578.94578 0 0 0 .10437.01489 14.73215 14.73215 0 0 1 2.63079.487 9.10345 9.10345 0 0 1 6.50605 5.78745zm-5.33222-41.689a16.07524 16.07524 0 0 1 1.39545 4.61664c.001.01294.002.02685.004.03979a9.78293 9.78293 0 0 1 -.08051 3.06018 8.703 8.703 0 0 1 -2.8197 4.91059 13.99677 13.99677 0 0 0 -1.56531-1.75116c-.68861-6.08706 1.69266-9.47335 3.06607-10.876zm-6.60541 10.6367a16.15963 16.15963 0 0 1 1.88343 1.468 11.61971 11.61971 0 0 1 2.13983 2.53839 9.84488 9.84488 0 0 1 .54223 9.04017 22.07618 22.07618 0 0 0 -3.74438-2.36908c-1.84357-3.92669-1.27173-8.48858-.82111-10.67748zm-1.39148 11.8562q.492.22512.976.46612a18.063 18.063 0 0 1 4.59479 3.099c3.54168 3.45508 1.954 6.56934 1.13171 7.726a16.876 16.876 0 0 0 -1.999-.35449c-5.19574-4.02398-5.07636-8.83116-4.7035-10.93663z"/><path d="m19.39642 31.37384a12.60358 12.60358 0 1 0 12.60358-12.60358 12.61847 12.61847 0 0 0 -12.60358 12.60358zm12.60358-10.56805a10.56857 10.56857 0 1 1 -10.568 10.56805 10.58012 10.58012 0 0 1 10.568-10.56805z"/><path d="m29.17633 30.46143a1.02037 1.02037 0 0 0 .96314-1.06842 3.21162 3.21162 0 0 1 .69171-2.20051 1.79359 1.79359 0 0 1 1.50976-.37866 1.49114 1.49114 0 0 1 1.43714 1.01874c.47607 1.56244-.98194 4.75281-5.31037 8.35669a1.01771 1.01771 0 0 0 .651 1.79993h5.76258a1.01773 1.01773 0 1 0 0-2.03546h-3.13074c3.21722-3.21528 4.68719-6.37488 3.97559-8.71351a3.49587 3.49587 0 0 0 -3.1745-2.452 3.78931 3.78931 0 0 0 -3.1308.93628 5.20366 5.20366 0 0 0 -1.31391 3.78174 1.02553 1.02553 0 0 0 1.0694.95518z"/></g></svg>