<svg id="Line" height="512" viewBox="0 0 64 64" width="512" xmlns="http://www.w3.org/2000/svg"><g fill="rgb(0,0,0)"><path d="m5.81249 42.38672a.9992.9992 0 0 0 -.88769 1.08984 10.33611 10.33611 0 0 0 3.88868 6.67285c2.834 2.18848 6.80761 2.94043 11.82519 2.23243 1.449 1.69738 4.63617 3.21759 8.00958 4.44629-1.92041.52728-3.64233.94067-4.827 1.19531a.99993.99993 0 0 0 .209 1.97754.975.975 0 0 0 .21094-.02246c.74854-.16077 4.05-.892 7.75684-2.03248 3.70813 1.1402 7.012 1.87177 7.76074 2.03248a.975.975 0 0 0 .21094.02246.99993.99993 0 0 0 .209-1.97754c-1.43451-.30811-3.10229-.71771-4.83331-1.19513 3.37079-1.2284 6.55755-2.74866 8.014-4.44745 5.0166.71 8.99218-.042 11.82714-2.23145a10.33611 10.33611 0 0 0 3.88868-6.67285.9992.9992 0 0 0 -.88771-1.08984c-.78191-.08453-1.5407-.12988-2.28142-.14923a12.66536 12.66536 0 0 0 3.11444-12.34 1.00114 1.00114 0 0 0 -.53613-.57617.99062.99062 0 0 0 -.67908-.02966 21.34827 21.34827 0 0 0 -.17932-11.195.99939.99939 0 0 0 -1.45508-.56445c-.53186.30749-1.03162.631-1.50952.96331.14727-7.946-4.67243-11.25634-4.89771-11.40472a.99912.99912 0 0 0 -1.43654.3692 21.98819 21.98819 0 0 0 -1.51325 3.60358c-1.67425-2.81427-4.81079-6.5824-9.79437-7.05768a1.00134 1.00134 0 0 0 -1.07129.78125 11.26488 11.26488 0 0 0 1.61719 8.06348c1.78174 2.66607 4.77667 4.43524 8.87976 5.2854a10.70343 10.70343 0 0 0 3.50147 5.51623 11.94173 11.94173 0 0 0 .06091 10.60108 7.379 7.379 0 0 0 -1.18488 9.0758 10.82914 10.82914 0 0 0 -6.61664 7.13281 1.465 1.465 0 0 1 -.13867.31153l-.0166.02636c-1.12488 1.81965-5.61407 3.64441-10.043 5.04029-4.63373-1.47437-9.00213-3.32263-10.0556-5.0354l-.0166-.02637a1.45847 1.45847 0 0 1 -.14356-.32227 10.824 10.824 0 0 0 -6.61468-7.127 7.37865 7.37865 0 0 0 -1.18451-9.07648 11.94149 11.94149 0 0 0 .06082-10.60061 10.69462 10.69462 0 0 0 3.50122-5.516c4.103-.85016 7.098-2.61933 8.8797-5.2854a11.26488 11.26488 0 0 0 1.61719-8.06348.99329.99329 0 0 0 -1.07129-.78125c-4.98358.47528-8.12012 4.24341-9.79437 7.05762a21.98767 21.98767 0 0 0 -1.51325-3.60349.99912.99912 0 0 0 -1.43652-.36914c-.22528.14838-5.045 3.45874-4.89771 11.40485-.47815-.33246-.97778-.656-1.50952-.96344a.99939.99939 0 0 0 -1.45508.56445 21.34865 21.34865 0 0 0 -.17926 11.195.96764.96764 0 0 0 -1.21527.60583 12.66534 12.66534 0 0 0 3.11505 12.34067c-.74072.01929-1.49969.06439-2.28205.1485zm40.29585-26.36517c-3.17945-.78394-5.48712-2.2121-6.86518-4.25983a9.21625 9.21625 0 0 1 -1.44726-5.61719c4.899 1.03674 7.528 6.08435 8.35962 7.99384a12.1859 12.1859 0 0 0 -.04718 1.88318zm8.07525 5.39251a15.86944 15.86944 0 0 1 1.84668-1.43847c.44275 2.15069 1.00458 6.63305-.80682 10.49127a21.689 21.689 0 0 0 -3.67261 2.32306 9.73943 9.73943 0 0 1 .52729-8.87879 11.42431 11.42431 0 0 1 2.10546-2.49707zm-5.9414-4.31543a9.61435 9.61435 0 0 1 -.07715-2.999c.002-.01172.00293-.02344.00391-.03613a15.758 15.758 0 0 1 1.37105-4.53909c1.35132 1.38105 3.68921 4.70734 3.01269 10.68622a13.7825 13.7825 0 0 0 -1.538 1.72077 8.56366 8.56366 0 0 1 -2.7725-4.83277zm3.68457 18.02737a17.72249 17.72249 0 0 1 4.51172-3.043c.3164-.15723.63672-.31055.958-.458.36731 2.07172.48371 6.79346-4.62109 10.74634a16.59691 16.59691 0 0 0 -1.96313.34778c-.81012-1.13971-2.36597-4.19855 1.1145-7.59312zm-1.23047 9.67285a14.48042 14.48042 0 0 1 2.582-.47754.87418.87418 0 0 0 .09961-.01465 21.77541 21.77541 0 0 1 3.49121-.02832 8.39993 8.39993 0 0 1 -2.9043 4.28809c-2.27441 1.75586-5.51953 2.39941-9.66308 1.91992a8.94361 8.94361 0 0 1 6.39456-5.68752zm-24.49219-38.65432a9.21341 9.21341 0 0 1 -1.44726 5.61719c-1.37806 2.04773-3.68586 3.476-6.8653 4.25989a12.17982 12.17982 0 0 0 -.04663-1.88428c.83209-1.9104 3.46109-6.95624 8.35919-7.9928zm-6.50488 44.3418c-4.12305.47656-7.36328-.1582-9.63673-1.89844a8.45552 8.45552 0 0 1 -2.92577-4.31055 21.66353 21.66353 0 0 1 3.48242.0293.92433.92433 0 0 0 .10254.01465 14.4755 14.4755 0 0 1 2.585.47851 8.94472 8.94472 0 0 1 6.39254 5.68653zm-5.23922-40.96192a15.79339 15.79339 0 0 1 1.37109 4.53614c.001.01269.002.02636.00391.03906a9.61083 9.61083 0 0 1 -.0791 3.00684 8.55091 8.55091 0 0 1 -2.77051 4.825 13.75151 13.75151 0 0 0 -1.538-1.72065c-.67658-5.981 1.66314-9.30821 3.01261-10.68639zm-6.49027 10.45118a15.87067 15.87067 0 0 1 1.85058 1.44241 11.41707 11.41707 0 0 1 2.10254 2.49414 9.67336 9.67336 0 0 1 .53278 8.88251 21.692 21.692 0 0 0 -3.67908-2.32776c-1.8114-3.85825-1.24955-8.34061-.80682-10.4913zm-1.36719 11.64941q.48339.22119.959.458a17.74763 17.74763 0 0 1 4.51465 3.04492c3.47992 3.39484 1.92 6.45483 1.112 7.59131a16.58228 16.58228 0 0 0 -1.96411-.34833c-5.10518-3.95379-4.98787-8.67711-4.62154-10.7459z"/><path d="m19.61621 31.38477a12.38379 12.38379 0 1 0 12.38379-12.38377 12.39843 12.39843 0 0 0 -12.38379 12.38377zm22.76758 0a10.38379 10.38379 0 1 1 -10.38379-10.38377 10.39582 10.39582 0 0 1 10.38379 10.38377z"/><path d="m29.38086 26.9209a.99982.99982 0 1 0 1.293 1.52539l.47461-.40234v7.84082h-.82422a1 1 0 1 0 0 2h3.64844a1 1 0 0 0 0-2h-.82422v-10a1.00007 1.00007 0 0 0 -1.64649-.7627z"/></g></svg>