<svg version="1.1" id="Capa_1" xmlns="http://www.w3.org/2000/svg" xmlns:xlink="http://www.w3.org/1999/xlink" x="0px" y="0px" viewBox="0 0 512.003 512.003" style="enable-background:new 0 0 512.003 512.003;" xml:space="preserve" fill="#CECFD1">
<g>
	<g>
		<path style="fill:none;stroke:#CECFD1;stroke-width:15;stroke-linecap:round;stroke-linejoin:round;stroke-miterlimit:10;" d="&#10;&#9;&#9;&#9;M148.132,89.615V54.094h-23.297c-12.866,0-23.297-10.43-23.297-23.297S111.968,7.5,124.835,7.5h46.594&#10;&#9;&#9;&#9;c12.866,0,23.297,10.43,23.297,23.297v248.5c0,12.867-10.431,23.297-23.297,23.297s-23.297-10.43-23.297-23.297V124.615"/>
	</g>
	<g>
		<path style="fill:none;stroke:#CECFD1;stroke-width:15;stroke-linecap:round;stroke-linejoin:round;stroke-miterlimit:10;" d="&#10;&#9;&#9;&#9;M318.127,302.594c-50.916,0-92.339-41.423-92.339-92.339V99.839c0-50.916,41.423-92.339,92.339-92.339&#10;&#9;&#9;&#9;s92.339,41.423,92.339,92.339v110.415C410.466,261.17,369.043,302.594,318.127,302.594z M363.872,154.199v-54.36&#10;&#9;&#9;&#9;c0-25.224-20.521-45.746-45.745-45.746s-45.745,20.521-45.745,45.746v110.415c0,25.224,20.521,45.746,45.745,45.746&#10;&#9;&#9;&#9;s45.745-20.521,45.745-45.746v-21.055"/>
	</g>
	
		<polyline style="fill:none;stroke:#CECFD1;stroke-width:15;stroke-linecap:round;stroke-linejoin:round;stroke-miterlimit:10;" points="&#10;&#9;&#9;442.377,457.91 380.474,504.503 380.474,458.91 &#9;"/>
	<path style="fill:none;stroke:#CECFD1;stroke-width:15;stroke-linecap:round;stroke-linejoin:round;stroke-miterlimit:10;" d="&#10;&#9;&#9;M68.627,380.253H12.508c-3.717,0-6.134,3.912-4.472,7.236l26.326,52.653c0.704,1.408,0.704,3.064,0,4.472L8.036,497.267&#10;&#9;&#9;c-1.662,3.324,0.755,7.236,4.472,7.236h119.021"/>
	
		<polyline style="fill:none;stroke:#CECFD1;stroke-width:15;stroke-linecap:round;stroke-linejoin:round;stroke-miterlimit:10;" points="&#10;&#9;&#9;69.627,457.91 131.529,504.503 131.529,458.91 &#9;"/>
	<path style="fill:none;stroke:#CECFD1;stroke-width:15;stroke-linecap:round;stroke-linejoin:round;stroke-miterlimit:10;" d="&#10;&#9;&#9;M443.377,380.253h56.119c3.717,0,6.134,3.912,4.472,7.236l-26.326,52.653c-0.704,1.408-0.704,3.064,0,4.472l26.326,52.653&#10;&#9;&#9;c1.662,3.324-0.755,7.236-4.472,7.236H380.474"/>
	<path style="fill:none;stroke:#CECFD1;stroke-width:15;stroke-linecap:round;stroke-linejoin:round;stroke-miterlimit:10;" d="&#10;&#9;&#9;M229.734,426.847l23.328-61.25c0.477-1.165,2.126-1.167,2.605-0.003l23.116,61.253"/>
	
		<line style="fill:none;stroke:#CECFD1;stroke-width:15;stroke-linecap:round;stroke-linejoin:round;stroke-miterlimit:10;" x1="237.009" y1="411.593" x2="271.625" y2="411.593"/>
	
		<polyline style="fill:none;stroke:#CECFD1;stroke-width:15;stroke-linecap:round;stroke-linejoin:round;stroke-miterlimit:10;" points="&#10;&#9;&#9;198.671,365.006 172.733,365.006 172.733,426.564 198.671,426.564 &#9;"/>
	
		<line style="fill:none;stroke:#CECFD1;stroke-width:15;stroke-linecap:round;stroke-linejoin:round;stroke-miterlimit:10;" x1="196.759" y1="395.785" x2="172.733" y2="395.785"/>
	<path style="fill:none;stroke:#CECFD1;stroke-width:15;stroke-linecap:round;stroke-linejoin:round;stroke-miterlimit:10;" d="&#10;&#9;&#9;M407.763,371.072c-6.421-5.121-15.821-7.927-24.251-5.387c-12.07,3.636-13.759,17.554-5.026,23.248c0,0,8.569,3.823,18.073,7.329&#10;&#9;&#9;c22.879,8.439,13.023,30.573-5.395,30.573c-9.223,0-16.964-4.039-21.649-9.209"/>
	
		<polyline style="fill:none;stroke:#CECFD1;stroke-width:15;stroke-linecap:round;stroke-linejoin:round;stroke-miterlimit:10;" points="&#10;&#9;&#9;102.146,364.722 121.99,395.113 141.671,364.88 &#9;"/>
	
		<line style="fill:none;stroke:#CECFD1;stroke-width:15;stroke-linecap:round;stroke-linejoin:round;stroke-miterlimit:10;" x1="121.912" y1="426.847" x2="121.99" y2="395.113"/>
	
		<line style="fill:none;stroke:#CECFD1;stroke-width:15;stroke-linecap:round;stroke-linejoin:round;stroke-miterlimit:10;" x1="314.881" y1="397.196" x2="340.978" y2="426.847"/>
	
		<line style="fill:none;stroke:#CECFD1;stroke-width:15;stroke-linecap:round;stroke-linejoin:round;stroke-miterlimit:10;" x1="307.39" y1="364.722" x2="307.39" y2="426.847"/>
	<path style="fill:none;stroke:#CECFD1;stroke-width:15;stroke-linecap:round;stroke-linejoin:round;stroke-miterlimit:10;" d="&#10;&#9;&#9;M340.978,380.868c0,8.917-7.819,16.146-17.059,16.146c-4.583,0-16.394,0.071-16.394,0.071s-0.074-11.722-0.074-16.217&#10;&#9;&#9;c0-3.692-0.041-16.146-0.041-16.146s11.094,0,16.509,0C333.159,364.722,340.978,371.951,340.978,380.868z"/>
	<path style="fill:none;stroke:#CECFD1;stroke-width:15;stroke-linecap:round;stroke-linejoin:round;stroke-miterlimit:10;" d="&#10;&#9;&#9;M171.193,457.91H69.627V343.66c0-5.523,4.477-10,10-10h352.75c5.523,0,10,4.477,10,10v114.25H206.193"/>
</g>
<g>
</g>
<g>
</g>
<g>
</g>
<g>
</g>
<g>
</g>
<g>
</g>
<g>
</g>
<g>
</g>
<g>
</g>
<g>
</g>
<g>
</g>
<g>
</g>
<g>
</g>
<g>
</g>
<g>
</g>
</svg>