<svg version="1.1" id="Capa_1" xmlns="http://www.w3.org/2000/svg" xmlns:xlink="http://www.w3.org/1999/xlink" x="0px" y="0px" viewBox="0 0 512.003 512.003" style="enable-background:new 0 0 512.003 512.003;" xml:space="preserve">
<g>
	
		<polyline style="fill:none;stroke:#000000;stroke-width:15;stroke-linecap:round;stroke-linejoin:round;stroke-miterlimit:10;" points="&#10;&#9;&#9;442.377,457.91 380.474,504.503 380.474,458.91 &#9;"/>
	<path style="fill:none;stroke:#000000;stroke-width:15;stroke-linecap:round;stroke-linejoin:round;stroke-miterlimit:10;" d="&#10;&#9;&#9;M68.627,380.253H12.508c-3.717,0-6.134,3.912-4.472,7.236l26.326,52.653c0.704,1.408,0.704,3.064,0,4.472L8.036,497.267&#10;&#9;&#9;c-1.662,3.324,0.755,7.236,4.472,7.236h119.021"/>
	
		<polyline style="fill:none;stroke:#000000;stroke-width:15;stroke-linecap:round;stroke-linejoin:round;stroke-miterlimit:10;" points="&#10;&#9;&#9;69.627,457.91 131.529,504.503 131.529,458.91 &#9;"/>
	<path style="fill:none;stroke:#000000;stroke-width:15;stroke-linecap:round;stroke-linejoin:round;stroke-miterlimit:10;" d="&#10;&#9;&#9;M443.377,380.253h56.119c3.717,0,6.134,3.912,4.472,7.236l-26.326,52.653c-0.704,1.408-0.704,3.064,0,4.472l26.326,52.653&#10;&#9;&#9;c1.662,3.324-0.755,7.236-4.472,7.236H380.474"/>
	<path style="fill:none;stroke:#000000;stroke-width:15;stroke-linecap:round;stroke-linejoin:round;stroke-miterlimit:10;" d="&#10;&#9;&#9;M229.734,426.847l23.328-61.25c0.477-1.165,2.126-1.167,2.605-0.003l23.116,61.253"/>
	
		<line style="fill:none;stroke:#000000;stroke-width:15;stroke-linecap:round;stroke-linejoin:round;stroke-miterlimit:10;" x1="237.009" y1="411.593" x2="271.625" y2="411.593"/>
	
		<polyline style="fill:none;stroke:#000000;stroke-width:15;stroke-linecap:round;stroke-linejoin:round;stroke-miterlimit:10;" points="&#10;&#9;&#9;198.671,365.006 172.733,365.006 172.733,426.564 198.671,426.564 &#9;"/>
	
		<line style="fill:none;stroke:#000000;stroke-width:15;stroke-linecap:round;stroke-linejoin:round;stroke-miterlimit:10;" x1="196.759" y1="395.785" x2="172.733" y2="395.785"/>
	<path style="fill:none;stroke:#000000;stroke-width:15;stroke-linecap:round;stroke-linejoin:round;stroke-miterlimit:10;" d="&#10;&#9;&#9;M407.763,371.072c-6.421-5.121-15.821-7.927-24.251-5.387c-12.07,3.636-13.759,17.554-5.026,23.248c0,0,8.569,3.823,18.073,7.329&#10;&#9;&#9;c22.879,8.439,13.023,30.573-5.395,30.573c-9.223,0-16.964-4.039-21.649-9.209"/>
	
		<polyline style="fill:none;stroke:#000000;stroke-width:15;stroke-linecap:round;stroke-linejoin:round;stroke-miterlimit:10;" points="&#10;&#9;&#9;102.146,364.722 121.99,395.113 141.671,364.88 &#9;"/>
	
		<line style="fill:none;stroke:#000000;stroke-width:15;stroke-linecap:round;stroke-linejoin:round;stroke-miterlimit:10;" x1="121.912" y1="426.847" x2="121.99" y2="395.113"/>
	
		<line style="fill:none;stroke:#000000;stroke-width:15;stroke-linecap:round;stroke-linejoin:round;stroke-miterlimit:10;" x1="314.881" y1="397.196" x2="340.978" y2="426.847"/>
	
		<line style="fill:none;stroke:#000000;stroke-width:15;stroke-linecap:round;stroke-linejoin:round;stroke-miterlimit:10;" x1="307.39" y1="364.722" x2="307.39" y2="426.847"/>
	<path style="fill:none;stroke:#000000;stroke-width:15;stroke-linecap:round;stroke-linejoin:round;stroke-miterlimit:10;" d="&#10;&#9;&#9;M340.978,380.868c0,8.917-7.819,16.146-17.059,16.146c-4.583,0-16.394,0.071-16.394,0.071s-0.074-11.722-0.074-16.217&#10;&#9;&#9;c0-3.692-0.041-16.146-0.041-16.146s11.094,0,16.509,0C333.159,364.722,340.978,371.951,340.978,380.868z"/>
	<path style="fill:none;stroke:#000000;stroke-width:15;stroke-linecap:round;stroke-linejoin:round;stroke-miterlimit:10;" d="&#10;&#9;&#9;M360.014,333.66h72.363c5.523,0,10,4.477,10,10v114.25H69.627V343.66c0-5.523,4.477-10,10-10h245.387"/>
	<g>
		<path style="fill:none;stroke:#000000;stroke-width:15;stroke-linecap:round;stroke-linejoin:round;stroke-miterlimit:10;" d="&#10;&#9;&#9;&#9;M140.36,75.096V54.094h-13.267c-12.867,0-23.297-10.43-23.297-23.297S114.226,7.5,127.093,7.5h36.564&#10;&#9;&#9;&#9;c12.867,0,23.297,10.43,23.297,23.297v248.5c0,12.867-10.43,23.297-23.297,23.297s-23.297-10.43-23.297-23.297V111.096"/>
	</g>
	<g>
		<path style="fill:none;stroke:#000000;stroke-width:15;stroke-linecap:round;stroke-linejoin:round;stroke-miterlimit:10;" d="&#10;&#9;&#9;&#9;M341.54,163.619c-8.969-6.962-19.899-10.725-31.481-10.725c-19.871,0-28.029,3.003-38.208,7.585&#10;&#9;&#9;&#9;c-1.351,0.607-2.112,0.993-2.119,0.997c-7.831,4.047-17.237,3.307-24.363-1.881c-7.126-5.186-10.68-13.968-9.239-22.663&#10;&#9;&#9;&#9;l18.215-109.943C256.207,15.745,265.931,7.5,277.328,7.5h91.949c12.867,0,23.297,10.431,23.297,23.297&#10;&#9;&#9;&#9;s-10.43,23.297-23.297,23.297h-72.194l-8.856,53.456c6.402-0.82,13.538-1.249,21.832-1.249c26.777,0,52.719,11.147,71.174,30.585&#10;&#9;&#9;&#9;c18.718,19.716,28.25,45.552,26.838,72.751c-2.651,51.083-44.818,91.906-95.998,92.937c-0.665,0.014-1.334,0.021-1.997,0.021&#10;&#9;&#9;&#9;c-41.222,0.003-78.132-25.742-92.267-64.579c-4.4-12.091,1.834-25.46,13.925-29.86c12.091-4.398,25.459,1.835,29.859,13.925&#10;&#9;&#9;&#9;c7.543,20.728,27.438,34.314,49.541,33.91c26.874-0.542,49.014-21.963,50.405-48.768c0.239-4.605-0.117-9.135-1.038-13.506"/>
	</g>
</g>
<g>
</g>
<g>
</g>
<g>
</g>
<g>
</g>
<g>
</g>
<g>
</g>
<g>
</g>
<g>
</g>
<g>
</g>
<g>
</g>
<g>
</g>
<g>
</g>
<g>
</g>
<g>
</g>
<g>
</g>
</svg>